#N canvas 10 417 400 221 12;
#X symbolatom 30 20 10 0 0 0 - #0-prog -, f 10;
#X symbolatom 120 20 10 0 0 0 - #0-name -, f 10;
#X obj 30 80 chordprog;
#X obj 230 20 tgl 15 0 empty empty empty 17 7 0 10 #fcfcfc #000000
#000000 0 1;
#X obj 30 50 notein 9;
#N canvas 1057 396 450 300 rec 0;
#X msg 20 120 rec \$1;
#X obj 100 80 notein;
#X obj 100 109 pack f f;
#X obj 100 138 spigot;
#X obj 100 167 unpack f f;
#X obj 20 20 inlet;
#X obj 20 240 outlet;
#X obj 76 240 outlet;
#X connect 0 0 6 0;
#X connect 1 0 2 0;
#X connect 1 1 2 1;
#X connect 2 0 3 0;
#X connect 3 0 4 0;
#X connect 4 0 6 0;
#X connect 4 1 7 0;
#X connect 5 0 0 0;
#X connect 5 0 3 1;
#X restore 230 60 pd rec;
#X floatatom 200 140 5 -12 12 2 semi #0-semi -, f 5;
#X floatatom 264 140 5 -3 3 2 oct #0-oct -, f 5;
#N canvas 737 383 450 300 prog-set 0;
#X obj 20 60 route oct semi;
#X obj 20 20 inlet;
#X obj 20 89 s \$0-oct;
#X obj 67 120 s \$0-semi;
#X obj 115 220 s \$0-prog;
#X obj 195 220 s \$0-name;
#X obj 115 160 unpack s s;
#X msg 115 189 set \$1;
#X msg 195 190 set \$1;
#X connect 0 0 2 0;
#X connect 0 1 3 0;
#X connect 0 2 6 0;
#X connect 1 0 0 0;
#X connect 6 0 7 0;
#X connect 6 1 8 0;
#X connect 7 0 4 0;
#X connect 8 0 5 0;
#X restore 30 120 pd prog-set;
#N canvas 957 308 450 300 prog-out 0;
#X obj 20 80 drip;
#X obj 20 20 inlet;
#X obj 145 20 inlet;
#X obj 210 20 inlet;
#X obj 20 230 s all-arp;
#X obj 140 230 s all-notes;
#X obj 20 173 pack f f 1;
#X obj 280 20 inlet;
#X msg 20 201 note \$1 \$2 \$3;
#X msg 140 201 \$1 \$2 \$3;
#X obj 280 49 t f f f;
#X obj 349 120 > 0;
#X obj 310 180 spigot;
#X obj 310 230 noteout;
#X obj 349 150 tgl 15 0 empty empty empty 17 7 0 10 #fcfcfc #000000
#000000 0 1;
#X obj 240 110 spigot;
#X obj 80 20 inlet;
#X obj 80 138 t f f;
#X obj 20 138 t f f;
#X obj 20 109 transpose;
#X connect 0 0 19 0;
#X connect 1 0 0 0;
#X connect 2 0 19 2;
#X connect 3 0 19 3;
#X connect 6 0 8 0;
#X connect 6 0 9 0;
#X connect 7 0 10 0;
#X connect 8 0 4 0;
#X connect 9 0 5 0;
#X connect 10 0 15 0;
#X connect 10 1 13 2;
#X connect 10 2 11 0;
#X connect 11 0 14 0;
#X connect 12 0 13 0;
#X connect 14 0 12 1;
#X connect 14 0 15 1;
#X connect 15 0 6 2;
#X connect 16 0 19 1;
#X connect 17 0 6 1;
#X connect 17 1 13 1;
#X connect 18 0 6 0;
#X connect 18 1 12 0;
#X connect 19 0 18 0;
#X connect 19 1 17 0;
#X restore 200 180 pd prog-out;
#X text 200 100 - transpose -;
#X floatatom 320 140 5 0 64 2 channel - -, f 5;
#X obj 319 102 tgl 15 0 empty empty empty 17 7 0 10 #fcfcfc #000000
#000000 0 1;
#X connect 0 0 2 0;
#X connect 1 0 2 1;
#X connect 2 0 8 0;
#X connect 2 1 9 0;
#X connect 2 2 9 1;
#X connect 3 0 5 0;
#X connect 4 0 2 0;
#X connect 4 1 2 1;
#X connect 5 0 2 0;
#X connect 5 1 2 1;
#X connect 6 0 9 2;
#X connect 7 0 9 3;
#X connect 11 0 9 4;
#X connect 12 0 11 0;
