#N canvas 834 200 450 487 12;
#X obj 80 103 tgl 15 0 empty empty empty 17 7 0 10 #fcfcfc #000000
#000000 0 1;
#X obj 80 127 metro 500;
#X obj 80 156 bng 15 50 50 0 empty empty empty 17 7 0 10 #fcfcfc #000000
#000000;
#X floatatom 182 103 5 0 0 0 - - -, f 5;
#X obj 80 330 algojuggle;
#X msg 10 300 reset;
#X msg 148 170 5 3 4;
#X floatatom 80 359 5 0 0 0 - - -, f 5;
#X floatatom 131 359 5 0 0 0 - - -, f 5;
#X text 240 170 siteswap pattern;
#X msg 147 240 80 120 35 42 47 48, f 10;
#X text 240 220 MIDI preset: minvel \, maxvel \, followed by MIDI notes
to be assigned to each object, f 24;
#X listbox 210 360 8 0 0 0 - - -, f 8;
#X obj 80 457 noteout 10;
#X text 242 103 metronome tick in msec;
#X floatatom 210 430 5 0 0 0 - - -, f 5;
#X text 280 430 MIDI output channel;
#X obj 80 387 makenote 64 500;
#X listbox 148 200 15 0 0 0 - - -, f 15;
#X listbox 147 290 25 0 0 0 - - -, f 25;
#X msg 210 400 1;
#X msg 250 400 10;
#X floatatom 182 40 5 0 0 0 - - -, f 5;
#X obj 182 68 expr 60000/$f1;
#X text 240 40 tempo (bpm);
#X msg 160 10 120;
#X msg 200 10 240;
#X msg 240 10 480;
#X msg 120 10 90;
#X text 10 200 site swap;
#X msg 10 227 swap 1 2;
#X msg 10 257 swap 1 3;
#X text 280 360 current beat;
#X connect 0 0 1 0;
#X connect 1 0 2 0;
#X connect 2 0 4 0;
#X connect 3 0 1 1;
#X connect 3 0 17 2;
#X connect 4 0 7 0;
#X connect 4 1 8 0;
#X connect 4 2 12 0;
#X connect 4 3 18 0;
#X connect 5 0 4 0;
#X connect 6 0 18 0;
#X connect 7 0 17 0;
#X connect 8 0 17 1;
#X connect 10 0 19 0;
#X connect 15 0 13 2;
#X connect 17 0 13 0;
#X connect 17 1 13 1;
#X connect 18 0 4 0;
#X connect 19 0 4 1;
#X connect 20 0 15 0;
#X connect 21 0 15 0;
#X connect 22 0 23 0;
#X connect 23 0 3 0;
#X connect 25 0 22 0;
#X connect 26 0 22 0;
#X connect 27 0 22 0;
#X connect 28 0 22 0;
#X connect 30 0 4 0;
#X connect 31 0 4 0;
